<?xml version="1.0" encoding="UTF-8"?>
<svg xmlns="http://www.w3.org/2000/svg" xmlns:xlink="http://www.w3.org/1999/xlink" width="487.5pt" height="487.499999pt" viewBox="0 0 487.5 487.499999" version="1.2">
<defs>
<clipPath id="clip1">
  <path d="M 11 3.839844 L 476.820312 3.839844 L 476.820312 483.839844 L 11 483.839844 Z M 11 3.839844 "/>
</clipPath>
</defs>
<g id="surface1">
<g clip-path="url(#clip1)" clip-rule="nonzero">
<path style=" stroke:none;fill-rule:nonzero;fill:rgb(13.729858%,12.159729%,12.548828%);fill-opacity:1;" d="M 220.0625 159.515625 C 221.054688 160.054688 222.03125 160.625 222.992188 161.242188 C 231.1875 166.492188 238.421875 173.28125 244.824219 180.578125 C 251.710938 188.441406 257.847656 197.09375 262.449219 206.5 C 264.53125 210.785156 266.339844 215.238281 267.515625 219.875 C 268.054688 222.019531 268.492188 224.167969 268.710938 226.355469 C 268.769531 226.925781 268.824219 227.492188 268.851562 228.054688 C 268.863281 228.226562 268.863281 228.382812 268.851562 228.5 C 268.660156 228.824219 268.449219 229.140625 268.246094 229.449219 L 268.234375 229.460938 C 267.140625 230.316406 266.035156 231.148438 264.90625 231.988281 C 255.992188 238.453125 246.058594 243.988281 238.324219 251.960938 C 242.511719 243.726562 243.214844 234.449219 241.625 225.390625 C 239.78125 214.796875 235.53125 204.816406 231.308594 195.003906 C 227.347656 185.8125 222.101562 169.605469 220.0625 159.515625 Z M 253.777344 147.082031 C 255.476562 141.871094 257.613281 136.816406 259.550781 131.707031 C 260.664062 128.730469 261.714844 125.726562 262.5625 122.667969 C 262.9375 127.96875 263.082031 133.261719 262.941406 138.585938 C 262.808594 144.304688 261.867188 149.96875 262.035156 155.695312 C 262.1875 160.753906 263.222656 165.714844 264.59375 170.550781 C 267.582031 181.074219 272.410156 190.933594 274.933594 201.582031 C 274.992188 201.832031 275.195312 201.957031 275.398438 201.957031 C 276.628906 206.292969 276.394531 210.617188 275.289062 214.796875 C 274.289062 210.742188 272.964844 206.796875 271.101562 203.042969 C 269.125 199.078125 266.746094 195.335938 264.296875 191.628906 C 258.648438 183.105469 251.683594 173.996094 250.984375 163.398438 C 250.628906 157.90625 252.105469 152.265625 253.777344 147.082031 Z M 211.757812 256.53125 C 206.0625 252.527344 200.496094 248.308594 195.027344 243.988281 C 189.863281 239.882812 184.902344 235.558594 179.75 231.441406 C 175.171875 227.769531 170.335938 224.464844 165.703125 220.882812 C 162.105469 218.117188 158.417969 215.175781 155.539062 211.597656 L 155.53125 211.382812 C 153.671875 208.890625 153.066406 206.382812 152.125 203.375 C 150.816406 199.214844 150.03125 194.9375 149.535156 190.628906 C 156.992188 194.398438 165.402344 199.765625 171.921875 204.941406 C 176.367188 208.476562 180.546875 212.304688 184.496094 216.375 C 186.609375 218.550781 188.671875 220.777344 190.679688 223.054688 C 192.789062 225.429688 195.164062 227.5625 197.449219 229.78125 C 202.054688 234.21875 206.335938 238.863281 209.527344 244.445312 C 212.425781 249.515625 214.070312 255.210938 217.105469 260.203125 C 215.304688 258.992188 213.519531 257.769531 211.757812 256.53125 Z M 150.660156 241.152344 C 151.105469 241.398438 151.542969 241.652344 151.96875 241.921875 C 151.449219 241.613281 150.933594 241.324219 150.421875 241.023438 Z M 475.726562 167.90625 C 468.296875 165.25 463.894531 158.625 457.417969 154.507812 C 451.140625 150.523438 443.382812 149.5625 436.039062 149.015625 C 441.691406 147.640625 447.472656 147.488281 453.257812 146.679688 C 460.09375 145.742188 465.875 142.726562 470.828125 137.921875 C 471.21875 137.523438 470.875 136.953125 470.351562 137.101562 C 461.3125 139.644531 452.921875 143.039062 443.34375 142.550781 C 438.929688 142.335938 434.535156 141.804688 430.109375 141.660156 C 425.550781 141.503906 421.195312 142.136719 416.722656 143.050781 C 400.449219 146.394531 384.792969 153.15625 372.246094 164.179688 C 374.285156 161.097656 375.25 157.226562 376.332031 153.761719 C 378.152344 147.933594 380.15625 142.121094 384.683594 137.816406 C 393.515625 129.402344 406.21875 123.957031 418.234375 122.378906 C 418.839844 122.300781 418.699219 121.394531 418.09375 121.445312 C 411 122.035156 404.027344 123.296875 397.179688 125.230469 C 401.410156 121.660156 405.371094 117.707031 408.480469 113.109375 C 408.785156 112.652344 408.265625 112.152344 407.816406 112.445312 C 398.628906 118.585938 390.738281 126.390625 383.023438 134.265625 C 376.90625 119.984375 377.714844 103.945312 375.796875 88.824219 C 375.726562 88.289062 374.929688 88.304688 374.863281 88.828125 C 372.265625 111.617188 381.257812 135.800781 370.089844 157.226562 C 363.976562 168.949219 353.136719 176.007812 342.335938 182.9375 C 331.175781 190.09375 321.339844 198.886719 310.859375 206.976562 C 302.707031 213.253906 294.511719 219.53125 287.039062 226.628906 C 296.59375 211.644531 308.660156 197.53125 313.054688 180.011719 C 315.160156 171.597656 316.058594 162.945312 317.664062 154.429688 C 319.28125 145.859375 321.648438 137.042969 327.261719 130.160156 C 327.558594 129.804688 327.128906 129.25 326.703125 129.441406 C 325.261719 130.117188 323.898438 130.945312 322.464844 131.648438 C 319.574219 120.195312 320.527344 107.882812 325.050781 96.988281 C 327.621094 90.792969 330.023438 84.671875 331.988281 78.25 C 333.925781 71.917969 335.675781 65.542969 337.863281 59.289062 C 338.0625 58.722656 337.234375 58.394531 336.992188 58.945312 C 330.558594 73.386719 325.050781 88.230469 318.707031 102.695312 C 318.027344 93.3125 320.734375 84.054688 318.078125 74.75 C 315.316406 65.082031 307.363281 57.835938 304.054688 48.339844 C 303.875 47.820312 303.097656 48.078125 303.164062 48.589844 C 303.863281 54.484375 306.351562 59.6875 309.011719 64.902344 C 311.765625 70.347656 314.105469 75.929688 314.953125 82.015625 C 315.804688 88.125 315.296875 94.367188 314.925781 100.5 C 314.570312 106.472656 314.710938 112.25 315.125 118.214844 C 316.140625 132.761719 315.125 147.460938 312.0625 161.691406 C 308.921875 176.273438 301.789062 190.390625 294.34375 203.195312 C 290.945312 209.042969 287.1875 214.632812 283.484375 220.28125 C 282.210938 222.246094 280.929688 224.28125 279.824219 226.421875 C 282.59375 213.484375 281.140625 200.058594 278.082031 186.972656 C 275.921875 177.707031 272.125 168.617188 272.179688 158.972656 C 272.21875 150.449219 277.3125 142.695312 276.285156 134.082031 C 276.226562 133.601562 275.574219 133.570312 275.382812 133.992188 C 274.539062 135.847656 273.3125 137.472656 272.257812 139.214844 C 272.503906 128.03125 268.699219 117.113281 269.640625 105.878906 C 270.664062 93.769531 280.996094 86.761719 285.449219 76.164062 C 285.628906 75.726562 285.089844 75.335938 284.71875 75.609375 C 280.28125 78.902344 276.433594 83.085938 271.46875 85.589844 C 276.394531 65.347656 283.433594 44.570312 281.101562 23.503906 C 281.035156 22.996094 280.390625 22.976562 280.191406 23.390625 C 275.105469 33.679688 275.0625 45.480469 273.074219 56.574219 C 271.953125 62.863281 269.886719 69.019531 267.914062 75.074219 C 266.082031 80.71875 264.035156 86.277344 261.847656 91.804688 C 259.296875 81.269531 256.054688 70.945312 252.835938 60.597656 C 253.003906 60.648438 253.195312 60.46875 253.101562 60.28125 C 248.511719 51.617188 245.535156 41.1875 237.585938 34.847656 C 237.398438 34.675781 237.125 34.875 237.234375 35.101562 C 239.753906 40 241.660156 45.183594 242.902344 50.546875 C 243.9375 54.996094 243.679688 60.089844 245.84375 64.21875 C 249.488281 82.074219 254.289062 100.117188 251.628906 118.460938 C 250.742188 124.613281 249.195312 130.78125 247.175781 136.652344 C 245.925781 140.304688 244.355469 144.128906 241.671875 146.949219 C 236.765625 152.171875 229.585938 151.410156 223.253906 149.730469 C 222.714844 149.597656 222.160156 149.433594 221.625 149.289062 C 225.308594 140.007812 221.183594 124.621094 220.21875 115.285156 C 219.664062 109.8125 220.230469 104.203125 220.765625 98.734375 C 221.324219 93.058594 222.050781 87.402344 222.527344 81.71875 L 222.480469 81.5625 C 222.800781 79.605469 222.761719 77.625 222.679688 75.644531 C 222.5625 73.164062 222.601562 70.707031 222.589844 68.214844 C 222.574219 63.066406 222.226562 57.949219 221.644531 52.847656 C 221.609375 52.585938 221.292969 52.507812 221.210938 52.78125 C 219.496094 58.140625 218.617188 63.734375 217.820312 69.304688 C 217.445312 71.988281 217.035156 74.601562 217.195312 77.316406 C 217.328125 79.652344 217.664062 81.953125 217.886719 84.28125 C 217.710938 94.066406 216.140625 103.777344 215.058594 113.492188 C 213.988281 123.207031 212.214844 137.25 214.328125 146.890625 C 212.582031 146.242188 210.847656 145.5625 209.140625 144.851562 C 204.328125 142.855469 199.578125 140.628906 195.15625 137.875 C 187.253906 132.976562 180.839844 126.449219 176.023438 118.617188 L 175.953125 118.617188 L 175.953125 118.394531 C 175.953125 118.097656 175.511719 118.097656 175.511719 118.394531 C 175.480469 121.191406 174.824219 124.199219 175.742188 126.867188 L 175.683594 126.792969 C 175.535156 126.554688 175.15625 126.773438 175.308594 127.015625 C 180.828125 135.785156 189.3125 142.3125 198.023438 147.691406 C 202.6875 150.570312 207.515625 153.171875 212.402344 155.664062 L 212.785156 155.863281 L 212.792969 155.890625 C 213.484375 158.328125 215.839844 174.554688 216.328125 177.019531 C 217.625 183.570312 218.433594 190.191406 219.378906 196.796875 C 219.859375 200.070312 220.347656 203.371094 220.960938 206.632812 C 221.519531 209.566406 222.382812 212.449219 223.226562 215.316406 C 224.96875 221.238281 226.855469 227.136719 228.355469 233.128906 C 229.554688 237.945312 230.65625 242.964844 230.507812 247.957031 C 230.09375 247.132812 229.476562 246.445312 228.757812 245.8125 C 225.148438 240.144531 220.503906 235.21875 216.175781 230.105469 C 211.402344 224.445312 207.328125 218.378906 203.398438 212.113281 C 196.640625 201.332031 190.238281 190.214844 182.269531 180.269531 C 178.585938 175.675781 174.398438 171.597656 170.433594 167.265625 C 166.925781 163.429688 163.441406 159.277344 161.539062 154.378906 C 157.179688 143.191406 162.792969 131.066406 169.078125 121.808594 C 170.539062 119.660156 172.085938 117.578125 173.683594 115.546875 C 173.800781 115.335938 173.953125 115.144531 174.144531 114.964844 C 176.273438 112.285156 178.484375 109.671875 180.726562 107.085938 C 182.695312 104.808594 184.683594 102.539062 186.632812 100.238281 C 188.683594 97.816406 190.726562 95.578125 192.183594 92.714844 L 192.207031 92.644531 L 192.300781 92.5625 C 193.785156 90.359375 195.585938 88.480469 197.972656 87.246094 C 198.199219 87.117188 198.035156 86.796875 197.804688 86.84375 C 194.511719 87.511719 191.488281 89.25 188.574219 90.820312 L 188.484375 91.09375 C 180.882812 95.710938 174.761719 102.65625 169.707031 109.894531 C 166.972656 113.800781 164.496094 117.871094 162.292969 122.105469 C 160.140625 126.226562 158.214844 130.445312 157.066406 134.957031 C 154.410156 145.445312 155.738281 156.277344 160.371094 166.019531 C 164.722656 175.179688 171.292969 183.058594 178.574219 190.042969 C 175.050781 188.015625 170.921875 186.851562 167.070312 185.785156 C 164.417969 185.03125 161.738281 184.363281 159.074219 183.589844 C 157.097656 183.023438 150.566406 180.089844 148.75 179.105469 L 148.734375 179.082031 C 148.554688 174.292969 148.464844 169.464844 148.175781 164.703125 C 147.984375 161.722656 147.878906 158.734375 147.558594 155.765625 C 147.210938 152.636719 146.746094 149.511719 146.652344 146.363281 C 146.554688 143.265625 146.828125 140.1875 147.90625 137.25 C 148.949219 134.472656 150.496094 131.933594 152.234375 129.523438 C 153.894531 127.242188 155.691406 125.003906 157.25 122.621094 C 158.832031 120.210938 160.480469 117.84375 162.175781 115.488281 C 165.6875 110.539062 169.242188 105.613281 172.515625 100.515625 C 178.796875 90.746094 184.28125 80.148438 185.898438 68.515625 L 186.015625 68.371094 C 187.015625 65.09375 188.800781 62.152344 190.394531 59.140625 C 192 56.101562 193.261719 53.015625 194.074219 49.695312 C 194.953125 46.144531 195.4375 42.429688 196.929688 39.074219 C 198.1875 36.25 199.828125 33.613281 200.949219 30.734375 C 201.03125 30.523438 200.722656 30.363281 200.578125 30.523438 C 195.734375 35.648438 195.074219 42.8125 191.765625 48.789062 C 191.464844 37.71875 186.265625 27.886719 179.691406 19.214844 C 179.582031 19.070312 179.269531 19.082031 179.285156 19.320312 C 180.417969 32.371094 193.8125 44.390625 186.769531 57.652344 C 185.433594 52.90625 182.101562 49.199219 179.382812 45.210938 C 176.058594 40.335938 173.953125 34.816406 171.804688 29.355469 C 171.71875 29.121094 171.382812 29.152344 171.363281 29.425781 C 171.085938 37.152344 174.671875 44.199219 178.425781 50.746094 C 179.773438 53.089844 181.070312 55.546875 181.855469 58.15625 C 182.617188 60.65625 183.089844 63.734375 181.15625 65.808594 C 177.761719 60.597656 172.839844 56.429688 170.730469 50.441406 C 170.648438 50.207031 170.28125 50.21875 170.28125 50.480469 C 170.363281 53.964844 172.253906 56.988281 174.070312 59.828125 C 174.894531 61.105469 175.679688 62.410156 176.476562 63.714844 C 176.953125 64.492188 177.632812 65.453125 177.914062 66.449219 L 177.871094 66.625 C 178.265625 68.183594 177.761719 69.921875 177.25 71.398438 C 176.476562 73.628906 175.40625 75.777344 174.273438 77.851562 C 170.21875 85.28125 165.214844 92.109375 160.621094 99.1875 C 158.136719 103.039062 155.75 106.953125 153.125 110.707031 C 149.914062 115.335938 144.9375 120.644531 140.101562 123.804688 C 140.066406 123.605469 139.992188 123.414062 139.898438 123.261719 L 139.765625 123.152344 C 138.769531 121.015625 138.15625 118.652344 137.613281 116.355469 C 136.800781 112.863281 136.1875 109.304688 135.671875 105.757812 C 134.496094 97.761719 133.707031 89.730469 132.878906 81.695312 C 132.472656 77.707031 132.226562 73.6875 131.558594 69.730469 C 124.980469 30.179688 110.628906 18.160156 108.847656 9 C 108.789062 8.734375 108.359375 8.839844 108.421875 9.136719 C 109.476562 14.171875 110.164062 19.292969 111.371094 24.292969 C 112.496094 28.917969 114.988281 33.890625 113.988281 38.71875 C 113.964844 38.859375 114.054688 38.96875 114.167969 38.988281 C 113.867188 48.011719 115.296875 57.125 116.898438 65.953125 C 118.734375 76.164062 120.875 86.285156 123.515625 96.320312 C 124.785156 101.164062 126.050781 106.019531 126.820312 110.980469 C 127.382812 114.574219 133.707031 145.566406 132.351562 149.167969 C 132.28125 149.132812 109.300781 114.652344 103.863281 106.382812 C 99.117188 99.179688 96.808594 90.773438 95.238281 82.378906 C 93.644531 73.839844 92.632812 65.191406 91.035156 56.667969 L 91.035156 56.5625 C 89.621094 47.074219 95.191406 38.152344 98.054688 29.476562 C 98.113281 29.273438 97.828125 29.09375 97.679688 29.273438 C 94.210938 33.335938 92.367188 38.414062 89.945312 43.140625 C 89.667969 30.160156 90.625 17.132812 89.0625 4.199219 C 89.042969 4.003906 88.769531 3.878906 88.648438 4.09375 C 86.0625 9.101562 85.664062 14.882812 85.652344 20.4375 C 85.640625 26.085938 86.121094 31.789062 85.460938 37.425781 C 81.941406 31.921875 76.664062 27.710938 71.503906 23.824219 C 71.304688 23.675781 71.125 23.957031 71.207031 24.132812 C 73.285156 28.867188 77.035156 32.523438 80.199219 36.511719 C 81.960938 38.730469 83.910156 41.242188 84.542969 44.078125 C 85.03125 46.226562 84.84375 48.398438 84.832031 50.574219 C 84.707031 50.546875 84.554688 50.617188 84.554688 50.773438 C 84.554688 55.378906 84.484375 59.929688 84.171875 64.511719 C 83.617188 72.914062 82.949219 81.417969 84.015625 89.808594 C 85.339844 100.273438 88.679688 110.910156 94.824219 119.570312 C 97.769531 123.722656 101.210938 127.496094 104.789062 131.121094 C 107.824219 134.195312 110.527344 137.558594 113.023438 141.105469 C 118.910156 149.457031 123.917969 158.59375 127.429688 168.214844 C 127.582031 168.617188 127.726562 169.023438 127.867188 169.449219 C 127.15625 168.878906 126.34375 168.394531 125.597656 167.917969 C 124 166.898438 122.375 165.925781 120.753906 164.949219 C 119.304688 164.074219 117.78125 163.269531 116.398438 162.296875 C 114.558594 161.003906 112.828125 159.574219 111.164062 158.058594 C 107.75 154.90625 104.625 151.472656 101.363281 148.183594 C 99.238281 146.023438 97.042969 143.847656 94.582031 142.074219 C 93.855469 141.152344 93.332031 140.140625 93.273438 138.828125 C 94.199219 137.148438 97.960938 137.328125 99.578125 137.707031 C 99.828125 137.769531 99.949219 137.421875 99.769531 137.316406 C 100.328125 137.285156 100.878906 137.238281 101.4375 137.164062 C 101.695312 137.136719 101.734375 136.828125 101.496094 136.738281 C 98.34375 135.492188 94.582031 135.253906 91.441406 136.675781 C 89.0625 133.429688 86.769531 129.964844 86.066406 125.929688 C 85.355469 121.773438 87.386719 117.84375 87.449219 113.714844 C 87.449219 113.492188 87.210938 113.445312 87.074219 113.566406 C 84.320312 115.699219 83.605469 119.957031 83.304688 123.207031 C 82.960938 126.925781 83.378906 130.472656 84.855469 133.78125 C 81.460938 128.820312 79.703125 122.710938 74.394531 119.285156 C 74.203125 119.152344 73.980469 119.398438 74.085938 119.582031 C 75.621094 122.335938 77.640625 124.785156 79.273438 127.492188 C 80.886719 130.1875 82.238281 133.035156 83.933594 135.714844 C 85.515625 138.210938 87.1875 140.679688 89.335938 142.730469 C 91.230469 144.566406 93.332031 146.203125 95.03125 148.242188 L 95.0625 148.480469 C 106.945312 158.640625 117.949219 173.457031 131.125 182.109375 L 131.148438 182.132812 C 131.773438 186.507812 131.761719 190.949219 130.613281 195.207031 L 130.578125 195.335938 L 130.53125 195.503906 L 130.53125 195.613281 C 130.496094 196.039062 130.589844 196.476562 130.734375 196.882812 C 119.117188 184.824219 106 174.265625 95.238281 161.402344 C 91.59375 157.035156 88.347656 152.433594 85.386719 147.589844 C 82.535156 142.910156 79.84375 138.160156 77 133.476562 C 71.941406 125.105469 66.386719 116.101562 58.289062 110.316406 L 58.242188 110.136719 C 56.886719 108.441406 55.316406 106.976562 53.835938 105.402344 C 52.375 103.832031 51.117188 102.117188 49.808594 100.4375 C 48.875 99.210938 47.9375 98.011719 47 96.808594 C 45.511719 93.769531 43.738281 90.582031 40.933594 88.839844 C 40.75 88.726562 40.488281 88.976562 40.625 89.148438 C 42.539062 91.765625 44.515625 94.328125 46.511719 96.890625 C 47.046875 97.929688 47.570312 98.984375 48.082031 100.039062 C 49.035156 101.980469 50.105469 103.808594 50.863281 105.828125 C 51.386719 107.242188 51.867188 108.78125 52.675781 110.097656 L 52.683594 110.289062 C 59.226562 122.902344 64.136719 136.40625 72.019531 148.316406 C 73.835938 151.058594 75.859375 153.648438 77.652344 156.394531 C 79.390625 159.09375 81 161.84375 82.523438 164.65625 C 84.816406 168.878906 136.871094 205.171875 169.589844 241.117188 C 156.3125 235.84375 140.011719 229.359375 137.566406 227.976562 C 133.613281 225.757812 129.554688 223.578125 126.050781 220.648438 C 120.164062 215.746094 115.292969 209.597656 108.773438 205.457031 C 105.015625 203.097656 100.851562 201.683594 96.722656 200.121094 C 92.511719 198.542969 88.292969 196.972656 84.128906 195.28125 C 75.671875 191.8125 67.519531 187.789062 59.882812 182.734375 C 59.546875 182.515625 59.261719 183.058594 59.597656 183.273438 C 65.078125 187.035156 70.722656 190.898438 75.203125 195.875 C 72.597656 196.066406 70.183594 197.046875 67.828125 198.152344 C 65.246094 199.339844 62.355469 200.953125 59.445312 201.078125 C 56.546875 201.1875 53.636719 200.390625 50.875 199.585938 C 48.25 198.839844 45.597656 198.125 42.980469 197.367188 C 37.589844 195.8125 32.660156 192.25 26.90625 192.125 C 21.144531 191.992188 16.457031 195.328125 11.296875 197.367188 C 11.011719 197.488281 11.015625 197.875 11.324219 197.964844 C 14.679688 198.914062 18.050781 198.886719 21.484375 198.398438 C 24.730469 197.933594 28.023438 197.269531 31.308594 197.546875 C 35.519531 197.902344 39.648438 199.394531 43.679688 200.570312 C 47.261719 201.636719 50.863281 202.597656 54.554688 203.21875 C 50.007812 204.652344 45.414062 206.339844 43.621094 211.210938 C 43.515625 211.507812 43.882812 211.644531 44.097656 211.535156 C 53.121094 206.75 63.414062 203.179688 73.671875 202.519531 C 84.855469 201.828125 95.570312 206.21875 105.335938 211.265625 C 109.609375 213.496094 113.785156 215.890625 117.960938 218.285156 C 120.160156 219.546875 122.453125 220.695312 124.453125 222.273438 C 126.070312 223.5625 127.582031 224.953125 129.03125 226.421875 C 131.949219 229.378906 134.753906 232.832031 138.242188 235.15625 C 139.121094 235.738281 140.039062 236.257812 140.964844 236.722656 C 136.542969 235.328125 131.933594 234.800781 127.34375 234.160156 C 122.230469 233.441406 117.128906 232.738281 112.046875 231.882812 C 101.71875 230.113281 91.585938 227.636719 81.785156 223.898438 C 81.355469 223.71875 81.179688 224.398438 81.601562 224.566406 C 88.667969 227.410156 95.949219 230.316406 102.199219 234.769531 C 99.332031 235.632812 96.878906 237.34375 94.511719 239.160156 C 91.921875 241.148438 89.089844 243.679688 85.859375 244.523438 C 82.648438 245.386719 79.1875 245.210938 75.902344 244.996094 C 72.765625 244.8125 69.636719 244.675781 66.511719 244.496094 C 60.085938 244.09375 53.675781 241.339844 47.210938 242.625 C 40.71875 243.925781 36.316406 248.816406 31.042969 252.398438 C 30.746094 252.597656 30.867188 253.050781 31.222656 253.0625 C 35.222656 253.285156 38.988281 252.414062 42.695312 250.996094 C 46.234375 249.671875 49.742188 248.117188 53.496094 247.601562 C 58.300781 246.953125 63.28125 247.582031 68.101562 247.910156 C 72.363281 248.183594 76.632812 248.355469 80.914062 248.160156 C 76.183594 250.871094 71.464844 253.929688 70.679688 259.824219 C 70.625 260.15625 71.078125 260.25 71.277344 260.066406 C 80.199219 252.457031 90.824219 245.882812 102.136719 242.613281 C 114.476562 239.039062 127.570312 241.257812 139.753906 244.496094 C 145.09375 245.910156 150.363281 247.546875 155.636719 249.191406 C 158.417969 250.050781 161.253906 250.769531 163.894531 252.03125 C 166.019531 253.0625 168.054688 254.246094 170.050781 255.53125 C 174.050781 258.109375 178.050781 261.285156 182.523438 263.007812 C 184.207031 263.660156 185.933594 264.117188 187.667969 264.492188 C 190.207031 268.667969 192.238281 272.746094 193.621094 276.640625 L 193.609375 276.960938 C 193.894531 277.210938 194.179688 277.472656 194.460938 277.734375 C 195.257812 278.800781 196.019531 279.933594 196.722656 281.074219 L 195.417969 278.652344 C 196.535156 279.769531 197.578125 280.96875 198.507812 282.25 C 204.339844 290.414062 205.828125 300.726562 205.929688 310.535156 C 206.039062 320.46875 204.753906 330.320312 204.234375 340.226562 C 203.503906 354.210938 204.980469 368.164062 205.703125 382.132812 C 206.375 394.835938 206.75 408 203.042969 420.339844 C 199.972656 430.566406 194.34375 439.667969 188.179688 448.324219 C 184.628906 453.296875 180.882812 458.128906 177.394531 463.148438 C 174.0625 467.964844 170.78125 472.886719 166.839844 477.222656 L 166.945312 477.027344 C 167.070312 476.765625 166.6875 476.539062 166.558594 476.804688 C 164.234375 481.261719 158.753906 481.289062 154.445312 482.191406 C 154.234375 482.238281 154.222656 482.585938 154.445312 482.621094 C 164.132812 484.132812 173.847656 481.976562 183.496094 481.15625 C 193.105469 480.363281 202.742188 480.171875 212.105469 477.667969 C 218.582031 475.941406 224.898438 473.484375 231.570312 472.578125 C 235.078125 472.101562 238.597656 472.101562 242.097656 472.695312 C 245.257812 473.222656 248.328125 474.085938 251.390625 474.988281 C 254.433594 475.878906 257.488281 476.8125 260.609375 477.417969 C 263.757812 478.003906 266.890625 478.085938 270.066406 478.296875 C 277.003906 478.773438 283.925781 479.792969 290.546875 481.976562 C 290.730469 482.035156 290.894531 481.808594 290.800781 481.644531 C 289.441406 479.429688 288.132812 476.515625 285.742188 475.246094 L 285.742188 473.976562 C 285.742188 473.699219 285.300781 473.699219 285.300781 473.976562 L 285.300781 475.027344 L 285.21875 475 C 284.199219 473.816406 283 472.820312 282.058594 471.605469 L 281.785156 471.5625 C 278.710938 468.378906 275.632812 465.1875 272.671875 461.878906 C 268.449219 457.144531 264.710938 452.210938 261.394531 446.800781 C 254.941406 436.328125 255.90625 423.449219 256.003906 411.652344 C 256.269531 382.855469 251.289062 354.320312 251.070312 325.550781 C 251.054688 323.082031 251.019531 320.589844 251.003906 318.082031 C 250.273438 314.261719 249.605469 310.417969 249.101562 306.535156 C 248.34375 300.867188 247.925781 295.078125 248.28125 289.359375 C 253.960938 280.140625 260.347656 271.242188 269.007812 264.621094 C 279.84375 256.347656 292.882812 254.058594 306.21875 254.605469 C 317.210938 255.058594 328.210938 256.625 339.121094 254.402344 C 343.402344 253.550781 347.484375 252.003906 351.414062 250.097656 C 356.230469 247.792969 360.59375 244.675781 365.34375 242.21875 C 374.3125 237.570312 384.710938 237.59375 394.523438 238.386719 C 411.449219 239.746094 429.261719 243.425781 444.808594 234.375 C 445.246094 234.113281 445.121094 233.410156 444.558594 233.472656 C 418.898438 236.417969 393.105469 230.753906 367.457031 233.761719 C 371.339844 230.664062 373.875 226.175781 378.117188 223.457031 C 378.570312 223.164062 378.121094 222.4375 377.640625 222.652344 C 365.398438 227.992188 358.511719 240.542969 346.679688 246.394531 C 339.742188 249.832031 332.472656 248.53125 325.3125 246.621094 C 319.769531 245.152344 313.867188 243.085938 308.050781 243.535156 C 328.8125 235.683594 347.75 222.117188 370.136719 219.152344 C 376.667969 218.285156 383.4375 218.640625 390.015625 218.796875 C 396.988281 218.960938 403.902344 219.53125 410.8125 220.5625 C 420.902344 222.074219 431.046875 227.519531 441.242188 223.449219 C 441.441406 223.34375 441.644531 223.269531 441.84375 223.164062 C 442.359375 222.945312 442.109375 222.257812 441.589844 222.273438 C 432.429688 222.617188 423.90625 218.78125 415.011719 217.253906 C 429.867188 211.519531 446.167969 211.027344 461.273438 206.042969 C 461.789062 205.875 461.539062 205.070312 461.015625 205.140625 C 452.140625 206.621094 443.207031 207.59375 434.285156 208.671875 C 425.136719 209.757812 416.164062 211.460938 407.089844 212.921875 C 391.394531 215.4375 375.761719 209.777344 360.027344 210.085938 C 374.839844 202.875 391.851562 200.441406 405.125 190.214844 C 412.652344 184.4375 420.648438 177.230469 430.210938 175.226562 C 437.207031 173.757812 445.027344 174.207031 450.695312 169.128906 C 451.066406 168.796875 450.722656 168.070312 450.21875 168.332031 C 444.4375 171.433594 437.699219 171.039062 431.339844 171.621094 C 424.648438 172.234375 418.46875 175.058594 412.367188 177.691406 C 415.25 171.113281 419.230469 165.085938 421.972656 158.476562 C 422.179688 157.996094 421.480469 157.570312 421.171875 158.007812 C 417.457031 163.300781 414.304688 168.964844 410.34375 174.085938 C 406.109375 179.554688 400.558594 183.511719 394.558594 186.851562 C 383.363281 193.0625 370.992188 196.855469 360.121094 203.695312 C 348.738281 210.855469 338.53125 219.496094 326.238281 225.195312 C 320.4375 227.882812 314.488281 229.511719 308.242188 230.710938 C 304.328125 231.457031 300.378906 232.265625 296.738281 233.867188 C 304.71875 225.964844 313.964844 219.285156 322.492188 212.035156 C 327.878906 207.453125 333.308594 203.042969 339.089844 198.957031 C 344.960938 194.804688 350.945312 190.84375 356.78125 186.65625 C 367.625 178.914062 377.296875 169.433594 389.015625 162.996094 C 400.773438 156.519531 413.402344 152.234375 426.976562 152.792969 C 434.148438 153.097656 441.871094 154.726562 447.546875 159.355469 C 452.699219 163.550781 456.113281 169.804688 460.109375 175.011719 C 460.40625 175.40625 460.976562 175.128906 460.949219 174.667969 C 460.5625 170.105469 459.683594 165.222656 457.183594 161.335938 C 462.664062 165.179688 468.78125 168.109375 475.5 168.816406 C 476.023438 168.867188 476.25 168.082031 475.726562 167.90625 "/>
</g>
</g>
</svg>
