<?xml version="1.0" encoding="UTF-8"?>
<svg xmlns="http://www.w3.org/2000/svg" xmlns:xlink="http://www.w3.org/1999/xlink" width="375pt" height="374.999991pt" viewBox="0 0 375 374.999991" version="1.2">
<defs>
<clipPath id="clip1">
  <path d="M 13.738281 108.054688 L 28.589844 108.054688 L 28.589844 126.203125 L 13.738281 126.203125 Z M 13.738281 108.054688 "/>
</clipPath>
<clipPath id="clip2">
  <path d="M 20.652344 126.199219 L 14.132812 121.222656 C 13.886719 121.03125 13.738281 120.730469 13.738281 120.414062 L 13.738281 113.707031 L 20.652344 118.984375 Z M 21.679688 126.199219 L 28.199219 121.222656 C 28.445312 121.03125 28.589844 120.730469 28.589844 120.414062 L 28.589844 113.707031 L 21.679688 118.984375 Z M 20.625 108.292969 L 14.230469 112.847656 L 21.140625 118.128906 L 21.164062 118.109375 L 21.191406 118.128906 L 28.097656 112.847656 L 21.707031 108.292969 C 21.378906 108.058594 20.953125 108.058594 20.625 108.292969 Z M 20.625 108.292969 "/>
</clipPath>
<clipPath id="clip3">
  <path d="M 1.050781 60.726562 L 226.984375 60.726562 L 226.984375 293 L 1.050781 293 Z M 1.050781 60.726562 "/>
</clipPath>
</defs>
<g id="surface1">
<g clip-path="url(#clip1)" clip-rule="nonzero">
<g clip-path="url(#clip2)" clip-rule="nonzero">
<path style=" stroke:none;fill-rule:nonzero;fill:rgb(98.429871%,99.21875%,99.609375%);fill-opacity:1;" d="M 13.738281 108.058594 L 13.738281 126.199219 L 28.589844 126.199219 L 28.589844 108.058594 Z M 13.738281 108.058594 "/>
</g>
</g>
<g clip-path="url(#clip3)" clip-rule="nonzero">
<path style=" stroke:none;fill-rule:nonzero;fill:rgb(41.178894%,27.059937%,14.118958%);fill-opacity:1;" d="M 102.53125 136.082031 C 103.011719 136.34375 103.488281 136.621094 103.953125 136.921875 C 107.921875 139.460938 111.429688 142.746094 114.535156 146.28125 C 117.875 150.085938 120.847656 154.277344 123.078125 158.828125 C 124.085938 160.902344 124.964844 163.058594 125.53125 165.300781 C 125.792969 166.34375 126.003906 167.382812 126.109375 168.4375 C 126.140625 168.71875 126.167969 168.988281 126.179688 169.265625 C 126.183594 169.34375 126.183594 169.421875 126.179688 169.480469 C 126.085938 169.632812 125.984375 169.789062 125.886719 169.9375 L 125.878906 169.941406 C 125.351562 170.355469 124.8125 170.757812 124.265625 171.167969 C 119.945312 174.296875 115.132812 176.976562 111.382812 180.835938 C 113.414062 176.847656 113.753906 172.359375 112.984375 167.96875 C 112.089844 162.84375 110.027344 158.015625 107.980469 153.261719 C 106.0625 148.816406 103.519531 140.96875 102.53125 136.082031 Z M 118.871094 130.0625 C 119.695312 127.542969 120.730469 125.097656 121.671875 122.621094 C 122.210938 121.183594 122.71875 119.730469 123.132812 118.246094 C 123.3125 120.8125 123.382812 123.378906 123.3125 125.953125 C 123.25 128.71875 122.792969 131.464844 122.875 134.234375 C 122.949219 136.683594 123.449219 139.085938 124.117188 141.425781 C 125.566406 146.519531 127.90625 151.292969 129.128906 156.445312 C 129.15625 156.570312 129.257812 156.625 129.355469 156.625 C 129.949219 158.726562 129.835938 160.820312 129.300781 162.84375 C 128.8125 160.878906 128.171875 158.972656 127.269531 157.15625 C 126.3125 155.234375 125.15625 153.421875 123.972656 151.628906 C 121.234375 147.503906 117.855469 143.097656 117.519531 137.964844 C 117.34375 135.304688 118.0625 132.574219 118.871094 130.0625 Z M 98.503906 183.046875 C 95.746094 181.109375 93.046875 179.070312 90.394531 176.976562 C 87.894531 174.988281 85.488281 172.894531 82.992188 170.902344 C 80.773438 169.125 78.429688 167.523438 76.179688 165.792969 C 74.4375 164.453125 72.648438 163.027344 71.257812 161.296875 L 71.253906 161.195312 C 70.351562 159.988281 70.058594 158.769531 69.597656 157.320312 C 68.964844 155.300781 68.585938 153.230469 68.347656 151.144531 C 71.960938 152.96875 76.035156 155.570312 79.199219 158.074219 C 81.351562 159.785156 83.378906 161.636719 85.289062 163.609375 C 86.3125 164.660156 87.3125 165.742188 88.289062 166.839844 C 89.3125 167.992188 90.460938 169.023438 91.566406 170.097656 C 93.800781 172.246094 95.878906 174.496094 97.425781 177.195312 C 98.828125 179.648438 99.625 182.40625 101.097656 184.824219 C 100.222656 184.238281 99.359375 183.644531 98.503906 183.046875 Z M 68.890625 175.601562 C 69.109375 175.722656 69.320312 175.847656 69.523438 175.976562 C 69.273438 175.824219 69.023438 175.683594 68.773438 175.542969 Z M 226.457031 140.144531 C 222.855469 138.859375 220.71875 135.652344 217.578125 133.660156 C 214.539062 131.730469 210.777344 131.265625 207.21875 131 C 209.957031 130.335938 212.761719 130.261719 215.5625 129.871094 C 218.875 129.414062 221.675781 127.957031 224.078125 125.628906 C 224.269531 125.441406 224.105469 125.160156 223.851562 125.234375 C 219.46875 126.46875 215.398438 128.109375 210.757812 127.871094 C 208.621094 127.769531 206.488281 127.511719 204.34375 127.441406 C 202.136719 127.363281 200.019531 127.671875 197.855469 128.113281 C 189.964844 129.734375 182.378906 133.007812 176.296875 138.34375 C 177.28125 136.851562 177.75 134.976562 178.273438 133.300781 C 179.160156 130.476562 180.128906 127.660156 182.324219 125.582031 C 186.605469 121.507812 192.765625 118.871094 198.585938 118.105469 C 198.882812 118.070312 198.8125 117.628906 198.519531 117.652344 C 195.078125 117.941406 191.703125 118.550781 188.378906 119.488281 C 190.429688 117.761719 192.351562 115.84375 193.859375 113.621094 C 194.003906 113.398438 193.757812 113.15625 193.535156 113.296875 C 189.085938 116.269531 185.257812 120.046875 181.523438 123.859375 C 178.554688 116.949219 178.949219 109.183594 178.015625 101.863281 C 177.984375 101.605469 177.59375 101.613281 177.566406 101.867188 C 176.308594 112.898438 180.664062 124.605469 175.25 134.976562 C 172.289062 140.652344 167.035156 144.066406 161.800781 147.421875 C 156.390625 150.886719 151.621094 155.144531 146.542969 159.058594 C 142.589844 162.097656 138.617188 165.132812 134.996094 168.570312 C 139.625 161.320312 145.476562 154.488281 147.605469 146.003906 C 148.625 141.929688 149.058594 137.742188 149.839844 133.621094 C 150.625 129.476562 151.773438 125.203125 154.492188 121.875 C 154.632812 121.703125 154.425781 121.433594 154.222656 121.527344 C 153.519531 121.851562 152.863281 122.25 152.167969 122.59375 C 150.765625 117.046875 151.226562 111.089844 153.421875 105.816406 C 154.667969 102.816406 155.832031 99.851562 156.78125 96.746094 C 157.722656 93.683594 158.570312 90.59375 159.628906 87.566406 C 159.726562 87.292969 159.324219 87.132812 159.210938 87.398438 C 156.089844 94.390625 153.421875 101.574219 150.34375 108.578125 C 150.015625 104.039062 151.328125 99.554688 150.039062 95.046875 C 148.699219 90.367188 144.847656 86.863281 143.242188 82.265625 C 143.15625 82.015625 142.777344 82.140625 142.8125 82.386719 C 143.152344 85.238281 144.355469 87.761719 145.644531 90.28125 C 146.980469 92.917969 148.113281 95.625 148.527344 98.566406 C 148.941406 101.523438 148.691406 104.546875 148.511719 107.519531 C 148.339844 110.410156 148.40625 113.203125 148.609375 116.089844 C 149.101562 123.132812 148.609375 130.25 147.125 137.136719 C 145.601562 144.195312 142.140625 151.027344 138.539062 157.226562 C 136.886719 160.058594 135.070312 162.765625 133.273438 165.5 C 132.65625 166.449219 132.035156 167.4375 131.5 168.472656 C 132.839844 162.207031 132.136719 155.710938 130.652344 149.375 C 129.609375 144.890625 127.765625 140.488281 127.789062 135.820312 C 127.8125 131.695312 130.28125 127.941406 129.78125 123.773438 C 129.753906 123.539062 129.4375 123.523438 129.347656 123.730469 C 128.9375 124.628906 128.339844 125.414062 127.828125 126.257812 C 127.949219 120.84375 126.105469 115.558594 126.5625 110.121094 C 127.058594 104.257812 132.066406 100.867188 134.222656 95.734375 C 134.3125 95.523438 134.050781 95.335938 133.871094 95.46875 C 131.71875 97.058594 129.859375 99.085938 127.445312 100.300781 C 129.835938 90.503906 133.246094 80.441406 132.117188 70.242188 C 132.082031 69.996094 131.773438 69.988281 131.675781 70.191406 C 129.207031 75.171875 129.191406 80.882812 128.226562 86.253906 C 127.683594 89.292969 126.683594 92.277344 125.722656 95.207031 C 124.839844 97.941406 123.847656 100.628906 122.785156 103.308594 C 121.546875 98.207031 119.980469 93.210938 118.414062 88.199219 C 118.496094 88.226562 118.589844 88.140625 118.542969 88.046875 C 116.324219 83.855469 114.878906 78.804688 111.023438 75.734375 C 110.933594 75.652344 110.800781 75.746094 110.855469 75.859375 C 112.078125 78.230469 113 80.738281 113.601562 83.335938 C 114.101562 85.488281 113.976562 87.953125 115.027344 89.953125 C 116.796875 98.597656 119.121094 107.328125 117.832031 116.210938 C 117.402344 119.1875 116.648438 122.175781 115.671875 125.015625 C 115.066406 126.785156 114.308594 128.636719 113.003906 130 C 110.625 132.53125 107.148438 132.160156 104.078125 131.347656 C 103.8125 131.285156 103.546875 131.203125 103.289062 131.132812 C 105.074219 126.640625 103.074219 119.191406 102.605469 114.671875 C 102.339844 112.023438 102.609375 109.308594 102.875 106.664062 C 103.144531 103.914062 103.496094 101.175781 103.722656 98.425781 L 103.703125 98.347656 C 103.855469 97.402344 103.839844 96.445312 103.796875 95.480469 C 103.742188 94.285156 103.761719 93.09375 103.757812 91.886719 C 103.75 89.394531 103.578125 86.917969 103.296875 84.449219 C 103.28125 84.320312 103.125 84.285156 103.089844 84.417969 C 102.257812 87.007812 101.828125 89.71875 101.445312 92.414062 C 101.261719 93.710938 101.0625 94.980469 101.140625 96.292969 C 101.207031 97.425781 101.371094 98.539062 101.476562 99.664062 C 101.390625 104.402344 100.628906 109.101562 100.105469 113.804688 C 99.585938 118.507812 98.726562 125.308594 99.75 129.972656 C 98.902344 129.660156 98.066406 129.328125 97.234375 128.984375 C 94.902344 128.019531 92.597656 126.941406 90.460938 125.609375 C 86.625 123.234375 83.519531 120.078125 81.183594 116.289062 L 81.148438 116.289062 L 81.148438 116.179688 C 81.148438 116.035156 80.9375 116.035156 80.9375 116.179688 C 80.921875 117.535156 80.601562 118.992188 81.050781 120.28125 L 81.019531 120.246094 C 80.945312 120.128906 80.765625 120.238281 80.839844 120.351562 C 83.511719 124.597656 87.625 127.757812 91.847656 130.359375 C 94.109375 131.753906 96.449219 133.015625 98.816406 134.21875 L 99 134.316406 L 99.007812 134.332031 C 99.339844 135.507812 100.484375 143.367188 100.71875 144.558594 C 101.347656 147.726562 101.738281 150.933594 102.199219 154.128906 C 102.429688 155.714844 102.667969 157.3125 102.96875 158.890625 C 103.238281 160.3125 103.65625 161.710938 104.0625 163.09375 C 104.910156 165.964844 105.820312 168.816406 106.550781 171.71875 C 107.132812 174.050781 107.667969 176.476562 107.589844 178.898438 C 107.394531 178.496094 107.09375 178.167969 106.746094 177.859375 C 104.996094 175.117188 102.746094 172.730469 100.648438 170.257812 C 98.332031 167.515625 96.359375 164.582031 94.453125 161.546875 C 91.175781 156.324219 88.074219 150.945312 84.210938 146.128906 C 82.429688 143.90625 80.394531 141.929688 78.476562 139.835938 C 76.773438 137.976562 75.085938 135.96875 74.164062 133.59375 C 72.050781 128.179688 74.773438 122.3125 77.816406 117.832031 C 78.527344 116.789062 79.273438 115.785156 80.050781 114.800781 C 80.109375 114.699219 80.179688 114.609375 80.273438 114.515625 C 81.308594 113.21875 82.378906 111.957031 83.464844 110.707031 C 84.417969 109.601562 85.378906 108.5 86.324219 107.390625 C 87.324219 106.214844 88.3125 105.132812 89.019531 103.746094 L 89.027344 103.714844 L 89.074219 103.671875 C 89.792969 102.605469 90.664062 101.695312 91.820312 101.097656 C 91.933594 101.039062 91.855469 100.882812 91.738281 100.90625 C 90.144531 101.230469 88.679688 102.070312 87.265625 102.828125 L 87.222656 102.964844 C 83.542969 105.199219 80.574219 108.558594 78.125 112.0625 C 76.796875 113.953125 75.597656 115.925781 74.527344 117.976562 C 73.488281 119.96875 72.550781 122.011719 71.996094 124.195312 C 70.707031 129.273438 71.351562 134.515625 73.597656 139.234375 C 75.707031 143.667969 78.890625 147.484375 82.421875 150.859375 C 80.714844 149.878906 78.710938 149.316406 76.847656 148.800781 C 75.558594 148.4375 74.261719 148.109375 72.96875 147.738281 C 72.007812 147.464844 68.847656 146.042969 67.964844 145.566406 L 67.957031 145.554688 C 67.871094 143.238281 67.828125 140.898438 67.6875 138.597656 C 67.589844 137.152344 67.542969 135.707031 67.386719 134.269531 C 67.21875 132.753906 66.996094 131.242188 66.945312 129.71875 C 66.898438 128.21875 67.03125 126.730469 67.558594 125.308594 C 68.058594 123.960938 68.8125 122.734375 69.652344 121.5625 C 70.457031 120.460938 71.328125 119.378906 72.082031 118.226562 C 72.851562 117.058594 73.648438 115.910156 74.472656 114.769531 C 76.171875 112.378906 77.894531 109.992188 79.484375 107.527344 C 82.527344 102.796875 85.1875 97.664062 85.96875 92.03125 L 86.023438 91.964844 C 86.511719 90.378906 87.378906 88.949219 88.148438 87.496094 C 88.929688 86.023438 89.539062 84.53125 89.933594 82.921875 C 90.359375 81.203125 90.59375 79.402344 91.320312 77.777344 C 91.929688 76.414062 92.722656 75.136719 93.265625 73.746094 C 93.304688 73.640625 93.15625 73.5625 93.085938 73.640625 C 90.738281 76.125 90.421875 79.59375 88.8125 82.484375 C 88.667969 77.125 86.148438 72.363281 82.960938 68.167969 C 82.910156 68.097656 82.753906 68.101562 82.765625 68.21875 C 83.3125 74.535156 89.804688 80.351562 86.394531 86.773438 C 85.746094 84.476562 84.128906 82.683594 82.816406 80.753906 C 81.199219 78.394531 80.179688 75.722656 79.140625 73.074219 C 79.097656 72.960938 78.933594 72.976562 78.925781 73.109375 C 78.789062 76.851562 80.53125 80.261719 82.347656 83.429688 C 83 84.566406 83.632812 85.753906 84.011719 87.015625 C 84.378906 88.230469 84.605469 89.71875 83.675781 90.722656 C 82.023438 88.199219 79.640625 86.179688 78.617188 83.285156 C 78.578125 83.171875 78.402344 83.175781 78.402344 83.304688 C 78.441406 84.988281 79.355469 86.449219 80.238281 87.828125 C 80.636719 88.445312 81.019531 89.074219 81.402344 89.707031 C 81.632812 90.085938 81.964844 90.550781 82.101562 91.035156 L 82.082031 91.117188 C 82.273438 91.871094 82.023438 92.714844 81.78125 93.429688 C 81.402344 94.507812 80.886719 95.550781 80.335938 96.550781 C 78.371094 100.148438 75.945312 103.453125 73.71875 106.882812 C 72.515625 108.746094 71.355469 110.636719 70.082031 112.460938 C 68.527344 114.699219 66.117188 117.265625 63.773438 118.796875 C 63.753906 118.703125 63.71875 118.609375 63.671875 118.535156 L 63.609375 118.484375 C 63.128906 117.449219 62.832031 116.300781 62.570312 115.191406 C 62.171875 113.5 61.875 111.78125 61.625 110.0625 C 61.054688 106.191406 60.671875 102.300781 60.273438 98.414062 C 60.078125 96.484375 59.957031 94.535156 59.632812 92.621094 C 56.445312 73.476562 49.484375 67.660156 48.625 63.226562 C 48.59375 63.09375 48.382812 63.144531 48.417969 63.289062 C 48.925781 65.726562 49.261719 68.207031 49.84375 70.625 C 50.390625 72.863281 51.597656 75.273438 51.117188 77.605469 C 51.105469 77.675781 51.148438 77.730469 51.203125 77.742188 C 51.058594 82.105469 51.75 86.519531 52.527344 90.792969 C 53.417969 95.734375 54.453125 100.632812 55.730469 105.488281 C 56.347656 107.835938 56.960938 110.1875 57.335938 112.589844 C 57.609375 114.328125 60.671875 129.332031 60.015625 131.074219 C 59.980469 131.054688 48.84375 114.367188 46.207031 110.363281 C 43.90625 106.878906 42.785156 102.808594 42.023438 98.742188 C 41.257812 94.609375 40.761719 90.425781 39.988281 86.296875 L 39.988281 86.25 C 39.304688 81.65625 42.003906 77.335938 43.390625 73.132812 C 43.417969 73.035156 43.28125 72.949219 43.210938 73.035156 C 41.527344 75.003906 40.632812 77.460938 39.460938 79.746094 C 39.328125 73.464844 39.789062 67.15625 39.035156 60.898438 C 39.027344 60.804688 38.894531 60.742188 38.832031 60.84375 C 37.578125 63.273438 37.382812 66.070312 37.378906 68.761719 C 37.375 71.492188 37.609375 74.253906 37.285156 76.984375 C 35.585938 74.320312 33.023438 72.277344 30.523438 70.398438 C 30.429688 70.328125 30.335938 70.460938 30.375 70.546875 C 31.386719 72.835938 33.203125 74.609375 34.738281 76.542969 C 35.59375 77.617188 36.535156 78.828125 36.84375 80.203125 C 37.078125 81.242188 36.988281 82.296875 36.984375 83.347656 C 36.921875 83.335938 36.847656 83.371094 36.847656 83.441406 C 36.847656 85.671875 36.8125 87.875 36.664062 90.09375 C 36.394531 94.164062 36.070312 98.28125 36.585938 102.339844 C 37.230469 107.40625 38.84375 112.558594 41.828125 116.746094 C 43.253906 118.757812 44.921875 120.585938 46.65625 122.335938 C 48.125 123.828125 49.4375 125.457031 50.648438 127.171875 C 53.503906 131.214844 55.925781 135.636719 57.632812 140.292969 C 57.703125 140.488281 57.773438 140.683594 57.84375 140.890625 C 57.5 140.617188 57.101562 140.382812 56.742188 140.152344 C 55.96875 139.660156 55.183594 139.1875 54.394531 138.714844 C 53.691406 138.292969 52.953125 137.902344 52.28125 137.433594 C 51.390625 136.804688 50.550781 136.113281 49.746094 135.378906 C 48.09375 133.851562 46.574219 132.191406 44.996094 130.597656 C 43.96875 129.550781 42.902344 128.5 41.707031 127.640625 C 41.355469 127.199219 41.101562 126.703125 41.074219 126.070312 C 41.523438 125.253906 43.34375 125.339844 44.128906 125.527344 C 44.25 125.554688 44.3125 125.386719 44.222656 125.335938 C 44.492188 125.324219 44.761719 125.300781 45.03125 125.265625 C 45.15625 125.25 45.175781 125.101562 45.058594 125.058594 C 43.535156 124.457031 41.707031 124.339844 40.1875 125.027344 C 39.035156 123.460938 37.921875 121.777344 37.582031 119.828125 C 37.238281 117.8125 38.222656 115.910156 38.253906 113.910156 C 38.253906 113.804688 38.136719 113.78125 38.066406 113.84375 C 36.734375 114.875 36.386719 116.933594 36.242188 118.507812 C 36.074219 120.308594 36.28125 122.023438 36.992188 123.625 C 35.347656 121.226562 34.496094 118.269531 31.921875 116.609375 C 31.828125 116.546875 31.722656 116.660156 31.773438 116.75 C 32.515625 118.089844 33.496094 119.269531 34.285156 120.582031 C 35.070312 121.886719 35.726562 123.265625 36.546875 124.5625 C 37.3125 125.769531 38.125 126.964844 39.164062 127.957031 C 40.082031 128.847656 41.101562 129.636719 41.925781 130.625 L 41.945312 130.742188 C 47.703125 135.664062 53.035156 142.832031 59.417969 147.023438 L 59.433594 147.03125 C 59.738281 149.148438 59.734375 151.296875 59.175781 153.359375 L 59.15625 153.421875 L 59.132812 153.507812 L 59.132812 153.558594 C 59.117188 153.765625 59.160156 153.976562 59.230469 154.171875 C 53.601562 148.332031 47.242188 143.226562 42.023438 137 C 40.257812 134.882812 38.6875 132.65625 37.25 130.308594 C 35.867188 128.046875 34.566406 125.746094 33.1875 123.480469 C 30.734375 119.425781 28.042969 115.066406 24.117188 112.269531 L 24.09375 112.179688 C 23.4375 111.359375 22.675781 110.648438 21.957031 109.890625 C 21.25 109.128906 20.640625 108.300781 20.007812 107.484375 C 19.550781 106.894531 19.097656 106.308594 18.644531 105.730469 C 17.925781 104.257812 17.066406 102.714844 15.707031 101.871094 C 15.617188 101.816406 15.488281 101.9375 15.554688 102.023438 C 16.484375 103.285156 17.441406 104.527344 18.410156 105.769531 C 18.667969 106.273438 18.921875 106.78125 19.171875 107.292969 C 19.628906 108.230469 20.148438 109.117188 20.515625 110.097656 C 20.773438 110.777344 21.003906 111.523438 21.394531 112.164062 L 21.398438 112.253906 C 24.570312 118.359375 26.953125 124.898438 30.773438 130.660156 C 31.652344 131.988281 32.632812 133.242188 33.5 134.570312 C 34.347656 135.882812 35.125 137.210938 35.863281 138.570312 C 36.976562 140.617188 62.207031 158.1875 78.066406 175.585938 C 71.628906 173.03125 63.730469 169.894531 62.542969 169.226562 C 60.625 168.152344 58.660156 167.09375 56.960938 165.675781 C 54.109375 163.304688 51.75 160.328125 48.585938 158.324219 C 46.765625 157.179688 44.746094 156.496094 42.746094 155.742188 C 40.707031 154.976562 38.660156 154.214844 36.640625 153.398438 C 32.542969 151.71875 28.589844 149.769531 24.890625 147.324219 C 24.726562 147.214844 24.589844 147.484375 24.75 147.585938 C 27.40625 149.40625 30.144531 151.277344 32.3125 153.6875 C 31.050781 153.777344 29.882812 154.25 28.738281 154.789062 C 27.488281 155.363281 26.089844 156.144531 24.679688 156.203125 C 23.269531 156.257812 21.859375 155.871094 20.523438 155.480469 C 19.25 155.117188 17.96875 154.773438 16.695312 154.40625 C 14.082031 153.652344 11.695312 151.929688 8.90625 151.871094 C 6.113281 151.804688 3.839844 153.421875 1.339844 154.40625 C 1.199219 154.464844 1.203125 154.65625 1.351562 154.699219 C 2.980469 155.15625 4.613281 155.144531 6.28125 154.90625 C 7.851562 154.679688 9.445312 154.359375 11.039062 154.496094 C 13.082031 154.667969 15.082031 155.390625 17.035156 155.957031 C 18.769531 156.472656 20.515625 156.941406 22.308594 157.242188 C 20.101562 157.933594 17.875 158.75 17.007812 161.109375 C 16.957031 161.25 17.132812 161.320312 17.238281 161.265625 C 21.609375 158.945312 26.597656 157.21875 31.574219 156.902344 C 36.992188 156.566406 42.1875 158.695312 46.917969 161.132812 C 48.996094 162.21875 51.019531 163.371094 53.042969 164.53125 C 54.109375 165.144531 55.214844 165.703125 56.1875 166.460938 C 56.96875 167.085938 57.703125 167.761719 58.40625 168.472656 C 59.824219 169.902344 61.179688 171.574219 62.871094 172.703125 C 63.292969 172.980469 63.742188 173.234375 64.1875 173.457031 C 62.046875 172.78125 59.8125 172.53125 57.589844 172.214844 C 55.109375 171.871094 52.636719 171.527344 50.171875 171.117188 C 45.167969 170.257812 40.253906 169.0625 35.507812 167.25 C 35.296875 167.164062 35.214844 167.492188 35.417969 167.574219 C 38.839844 168.949219 42.367188 170.355469 45.402344 172.511719 C 44.011719 172.929688 42.820312 173.757812 41.671875 174.640625 C 40.417969 175.601562 39.046875 176.828125 37.480469 177.234375 C 35.921875 177.652344 34.246094 177.570312 32.652344 177.460938 C 31.132812 177.371094 29.617188 177.308594 28.101562 177.222656 C 24.988281 177.027344 21.882812 175.691406 18.746094 176.316406 C 15.597656 176.945312 13.46875 179.3125 10.910156 181.046875 C 10.765625 181.144531 10.824219 181.363281 10.996094 181.367188 C 12.933594 181.476562 14.761719 181.054688 16.558594 180.367188 C 18.273438 179.726562 19.972656 178.976562 21.796875 178.726562 C 24.125 178.410156 26.535156 178.71875 28.871094 178.871094 C 30.9375 179.003906 33.011719 179.089844 35.082031 178.996094 C 32.792969 180.308594 30.5 181.789062 30.121094 184.640625 C 30.097656 184.800781 30.316406 184.847656 30.410156 184.757812 C 34.738281 181.074219 39.886719 177.890625 45.367188 176.3125 C 51.355469 174.578125 57.695312 175.652344 63.605469 177.222656 C 66.191406 177.90625 68.746094 178.699219 71.304688 179.496094 C 72.648438 179.910156 74.027344 180.257812 75.304688 180.871094 C 76.335938 181.367188 77.320312 181.941406 78.289062 182.5625 C 80.230469 183.8125 82.167969 185.347656 84.335938 186.183594 C 85.148438 186.5 85.988281 186.71875 86.828125 186.902344 C 88.058594 188.921875 89.042969 190.898438 89.714844 192.78125 L 89.707031 192.933594 C 89.84375 193.058594 89.988281 193.183594 90.121094 193.3125 C 90.507812 193.828125 90.875 194.375 91.214844 194.929688 L 90.585938 193.757812 C 91.125 194.296875 91.632812 194.878906 92.082031 195.496094 C 94.910156 199.449219 95.632812 204.441406 95.679688 209.191406 C 95.730469 214 95.109375 218.769531 94.859375 223.5625 C 94.503906 230.332031 95.21875 237.085938 95.570312 243.847656 C 95.894531 249.996094 96.074219 256.371094 94.28125 262.34375 C 92.792969 267.292969 90.0625 271.703125 87.078125 275.890625 C 85.355469 278.296875 83.542969 280.640625 81.847656 283.066406 C 80.234375 285.398438 78.644531 287.78125 76.730469 289.882812 L 76.78125 289.78125 C 76.847656 289.65625 76.65625 289.546875 76.597656 289.679688 C 75.46875 291.832031 72.8125 291.847656 70.722656 292.285156 C 70.625 292.308594 70.617188 292.476562 70.722656 292.492188 C 75.421875 293.222656 80.128906 292.179688 84.804688 291.785156 C 89.460938 291.398438 94.132812 291.308594 98.675781 290.097656 C 101.8125 289.257812 104.875 288.074219 108.109375 287.628906 C 109.808594 287.398438 111.515625 287.398438 113.210938 287.6875 C 114.742188 287.945312 116.230469 288.359375 117.714844 288.796875 C 119.191406 289.226562 120.671875 289.679688 122.183594 289.972656 C 123.707031 290.257812 125.230469 290.296875 126.769531 290.398438 C 130.132812 290.628906 133.488281 291.125 136.695312 292.179688 C 136.785156 292.210938 136.867188 292.097656 136.820312 292.019531 C 136.160156 290.945312 135.523438 289.539062 134.363281 288.921875 L 134.363281 288.308594 C 134.363281 288.175781 134.148438 288.175781 134.148438 288.308594 L 134.148438 288.816406 L 134.113281 288.804688 C 133.617188 288.230469 133.039062 287.75 132.582031 287.160156 L 132.449219 287.140625 C 130.957031 285.597656 129.464844 284.054688 128.03125 282.453125 C 125.984375 280.160156 124.171875 277.773438 122.566406 275.152344 C 119.4375 270.082031 119.90625 263.851562 119.953125 258.140625 C 120.082031 244.195312 117.667969 230.386719 117.558594 216.460938 C 117.550781 215.261719 117.535156 214.058594 117.527344 212.84375 C 117.171875 210.996094 116.851562 209.132812 116.605469 207.253906 C 116.242188 204.511719 116.035156 201.707031 116.207031 198.9375 C 118.960938 194.476562 122.058594 190.167969 126.257812 186.960938 C 131.507812 182.957031 137.828125 181.847656 144.289062 182.117188 C 149.617188 182.335938 154.953125 183.09375 160.242188 182.015625 C 162.316406 181.605469 164.292969 180.855469 166.199219 179.933594 C 168.535156 178.816406 170.648438 177.308594 172.949219 176.117188 C 177.300781 173.871094 182.339844 173.882812 187.097656 174.265625 C 195.296875 174.921875 203.929688 176.703125 211.46875 172.324219 C 211.679688 172.195312 211.617188 171.855469 211.347656 171.886719 C 198.90625 173.3125 186.40625 170.570312 173.972656 172.027344 C 175.855469 170.527344 177.085938 168.351562 179.140625 167.039062 C 179.363281 166.894531 179.140625 166.542969 178.910156 166.648438 C 172.976562 169.234375 169.636719 175.304688 163.90625 178.140625 C 160.542969 179.804688 157.019531 179.175781 153.546875 178.25 C 150.859375 177.539062 148 176.539062 145.179688 176.757812 C 155.242188 172.953125 164.421875 166.390625 175.277344 164.953125 C 178.4375 164.53125 181.71875 164.703125 184.910156 164.78125 C 188.289062 164.859375 191.640625 165.132812 194.988281 165.636719 C 199.882812 166.367188 204.800781 169.007812 209.742188 167.035156 C 209.835938 166.980469 209.933594 166.949219 210.027344 166.894531 C 210.28125 166.789062 210.160156 166.453125 209.90625 166.460938 C 205.46875 166.628906 201.335938 164.773438 197.027344 164.035156 C 204.226562 161.257812 212.128906 161.023438 219.449219 158.609375 C 219.699219 158.527344 219.582031 158.136719 219.328125 158.167969 C 215.019531 158.886719 210.695312 159.355469 206.367188 159.878906 C 201.933594 160.40625 197.585938 161.230469 193.183594 161.9375 C 185.578125 163.152344 178 160.417969 170.371094 160.5625 C 177.550781 157.074219 185.796875 155.894531 192.234375 150.945312 C 195.882812 148.148438 199.757812 144.660156 204.390625 143.6875 C 207.785156 142.980469 211.574219 143.195312 214.320312 140.738281 C 214.5 140.578125 214.332031 140.226562 214.089844 140.351562 C 211.289062 141.855469 208.023438 141.660156 204.941406 141.945312 C 201.695312 142.242188 198.703125 143.605469 195.742188 144.882812 C 197.140625 141.699219 199.070312 138.78125 200.398438 135.582031 C 200.5 135.347656 200.164062 135.140625 200.011719 135.351562 C 198.207031 137.917969 196.683594 140.660156 194.761719 143.140625 C 192.707031 145.785156 190.023438 147.703125 187.113281 149.316406 C 181.6875 152.324219 175.6875 154.160156 170.421875 157.472656 C 164.902344 160.9375 159.953125 165.117188 153.996094 167.878906 C 151.183594 169.179688 148.300781 169.96875 145.273438 170.546875 C 143.375 170.910156 141.464844 171.300781 139.699219 172.078125 C 143.566406 168.25 148.046875 165.019531 152.179688 161.507812 C 154.792969 159.289062 157.421875 157.15625 160.222656 155.179688 C 163.066406 153.167969 165.972656 151.25 168.800781 149.222656 C 174.054688 145.472656 178.742188 140.882812 184.421875 137.769531 C 190.125 134.636719 196.246094 132.558594 202.828125 132.832031 C 206.296875 132.976562 210.046875 133.765625 212.796875 136.007812 C 215.292969 138.039062 216.945312 141.0625 218.882812 143.585938 C 219.03125 143.773438 219.304688 143.640625 219.292969 143.417969 C 219.105469 141.210938 218.679688 138.847656 217.464844 136.964844 C 220.121094 138.824219 223.085938 140.242188 226.34375 140.585938 C 226.597656 140.613281 226.707031 140.230469 226.457031 140.144531 "/>
</g>
<path style=" stroke:none;fill-rule:nonzero;fill:rgb(41.178894%,27.059937%,14.118958%);fill-opacity:1;" d="M 173.054688 219.269531 C 166.441406 219.269531 161.710938 221.101562 158.859375 224.753906 C 156.003906 228.410156 154.578125 234.027344 154.578125 241.597656 L 154.578125 243.882812 L 155.230469 263.976562 C 155.230469 264.710938 155.0625 265.617188 154.734375 266.691406 C 154.410156 267.757812 153.890625 268.691406 153.167969 269.492188 C 152.457031 270.296875 151.535156 270.695312 150.402344 270.695312 C 148.3125 270.695312 146.878906 270.066406 146.085938 268.804688 C 145.304688 267.546875 144.917969 265.480469 144.917969 262.601562 C 144.917969 260.6875 144.960938 258.691406 145.054688 256.601562 C 145.097656 255.90625 145.125 254.996094 145.125 253.867188 L 145.125 247.734375 C 145.125 245.292969 145.238281 241.941406 145.46875 237.679688 C 145.710938 233.414062 146.246094 225.957031 147.085938 215.300781 C 147.207031 213.125 147.695312 211.40625 148.546875 210.144531 C 149.390625 208.882812 150.597656 208.253906 152.171875 208.253906 C 153.039062 208.253906 153.855469 208.832031 154.613281 209.988281 C 155.378906 211.136719 155.765625 212.972656 155.765625 215.488281 C 155.765625 219.363281 155.695312 221.738281 155.558594 222.605469 C 156.425781 219.820312 158.109375 217.226562 160.609375 214.820312 C 163.121094 212.402344 165.851562 210.480469 168.808594 209.042969 C 171.765625 207.601562 174.332031 206.878906 176.507812 206.878906 C 180.070312 206.878906 183.222656 207.578125 185.960938 208.976562 C 188.699219 210.363281 190.070312 213.125 190.070312 217.257812 C 190.070312 218.566406 189.785156 219.765625 189.226562 220.851562 C 188.664062 221.929688 187.9375 222.777344 187.046875 223.394531 C 186.152344 224.003906 185.226562 224.304688 184.277344 224.304688 C 183.441406 224.304688 182.824219 224.160156 182.4375 223.859375 C 182.046875 223.550781 181.683594 223.070312 181.339844 222.414062 C 180.808594 221.410156 180.101562 220.636719 179.207031 220.09375 C 178.324219 219.546875 176.769531 219.269531 174.550781 219.269531 Z M 173.054688 219.269531 "/>
<path style=" stroke:none;fill-rule:nonzero;fill:rgb(41.178894%,27.059937%,14.118958%);fill-opacity:1;" d="M 220.617188 271.863281 C 216.046875 271.863281 211.738281 270.257812 207.691406 267.035156 C 203.644531 263.816406 200.414062 259.742188 198 254.8125 C 195.59375 249.875 194.390625 245.011719 194.390625 240.222656 C 194.390625 232.652344 195.699219 226.410156 198.324219 221.503906 C 200.960938 216.589844 204.375 213.007812 208.570312 210.761719 C 212.773438 208.519531 217.308594 207.394531 222.183594 207.394531 C 227.359375 207.394531 231.816406 208.734375 235.554688 211.414062 C 239.300781 214.089844 242.160156 217.890625 244.128906 222.828125 C 246.113281 227.769531 247.105469 233.566406 247.105469 240.222656 C 247.105469 246.273438 245.847656 251.714844 243.339844 256.550781 C 240.839844 261.375 237.554688 265.136719 233.492188 267.824219 C 229.421875 270.515625 225.128906 271.863281 220.617188 271.863281 Z M 238.5625 239.636719 C 238.5625 235.765625 237.917969 232.328125 236.636719 229.324219 C 235.351562 226.324219 233.578125 223.988281 231.308594 222.3125 C 229.046875 220.640625 226.53125 219.804688 223.746094 219.804688 C 220.308594 219.804688 216.980469 220.535156 213.761719 221.984375 C 210.539062 223.441406 207.902344 225.609375 205.855469 228.484375 C 203.8125 231.347656 202.792969 234.804688 202.792969 238.847656 C 202.792969 242.242188 203.621094 245.558594 205.269531 248.796875 C 206.929688 252.042969 209.085938 254.675781 211.730469 256.703125 C 214.386719 258.722656 217.132812 259.730469 219.964844 259.730469 C 223.183594 259.730469 226.210938 258.929688 229.058594 257.324219 C 231.910156 255.707031 234.203125 253.394531 235.949219 250.378906 C 237.691406 247.355469 238.5625 243.773438 238.5625 239.636719 Z M 238.5625 239.636719 "/>
<path style=" stroke:none;fill-rule:nonzero;fill:rgb(41.178894%,27.059937%,14.118958%);fill-opacity:1;" d="M 263.992188 180.648438 C 264.035156 179.4375 264.308594 178.328125 264.800781 177.332031 C 265.304688 176.328125 265.9375 175.539062 266.691406 174.976562 C 267.457031 174.40625 268.191406 174.117188 268.890625 174.117188 C 269.449219 174.117188 270.082031 174.394531 270.78125 174.945312 C 271.480469 175.484375 272.0625 176.265625 272.535156 177.296875 C 273.015625 178.320312 273.257812 179.5 273.257812 180.839844 C 273.257812 187.808594 272.886719 197.203125 272.15625 209.027344 C 271.765625 215.421875 271.476562 220.882812 271.28125 225.40625 C 271.082031 229.933594 270.988281 234.566406 270.988281 239.3125 L 270.988281 240.222656 L 296.359375 207.085938 C 297.011719 206.078125 297.738281 205.246094 298.539062 204.59375 C 299.351562 203.9375 300.125 203.613281 300.859375 203.613281 C 302.691406 203.613281 303.953125 204.085938 304.640625 205.023438 C 305.339844 205.960938 305.691406 207.476562 305.691406 209.558594 L 305.691406 210.210938 C 305.691406 211.910156 304.664062 213.890625 302.613281 216.160156 C 300.574219 218.417969 297.636719 221.28125 293.8125 224.753906 L 290.429688 227.898438 C 291.035156 229.285156 291.664062 230.863281 292.320312 232.625 C 292.972656 234.390625 293.40625 235.578125 293.625 236.183594 C 295.007812 240.183594 296.292969 243.464844 297.476562 246.03125 C 298.515625 248.472656 299.605469 250.667969 300.742188 252.613281 C 301.691406 254.1875 302.671875 256.097656 303.679688 258.355469 C 303.757812 258.574219 303.960938 259.101562 304.28125 259.9375 C 304.613281 260.761719 304.925781 261.65625 305.226562 262.617188 C 305.535156 263.570312 305.691406 264.300781 305.691406 264.816406 C 305.691406 266.914062 305.097656 268.679688 303.921875 270.109375 C 302.75 271.542969 301.386719 272.257812 299.828125 272.257812 C 298.820312 272.257812 297.976562 271.847656 297.304688 271.023438 C 296.636719 270.195312 296.085938 268.917969 295.652344 267.171875 C 295.652344 267.34375 294.792969 265.277344 293.074219 260.96875 C 291.355469 256.660156 288.148438 248.222656 283.449219 235.648438 L 270.988281 250.722656 C 270.988281 253.429688 271.007812 255.519531 271.039062 256.996094 L 271.109375 263.976562 C 271.109375 265.71875 270.617188 267.375 269.632812 268.941406 C 268.65625 270.496094 267.429688 271.28125 265.953125 271.28125 C 264.828125 271.28125 263.894531 270.886719 263.152344 270.109375 C 262.402344 269.320312 261.863281 268.390625 261.519531 267.328125 C 261.175781 266.261719 261.003906 265.296875 261.003906 264.4375 L 261.070312 258.957031 C 261.105469 256.6875 261.316406 254.074219 261.707031 251.117188 C 261.921875 249.734375 262.054688 248.34375 262.101562 246.941406 Z M 263.992188 180.648438 "/>
<path style=" stroke:none;fill-rule:nonzero;fill:rgb(41.178894%,27.059937%,14.118958%);fill-opacity:1;" d="M 342.109375 271.863281 C 337.535156 271.863281 333.226562 270.257812 329.183594 267.035156 C 325.136719 263.816406 321.902344 259.742188 319.488281 254.8125 C 317.082031 249.875 315.878906 245.011719 315.878906 240.222656 C 315.878906 232.652344 317.191406 226.410156 319.816406 221.503906 C 322.449219 216.589844 325.867188 213.007812 330.058594 210.761719 C 334.261719 208.519531 338.800781 207.394531 343.671875 207.394531 C 348.847656 207.394531 353.304688 208.734375 357.042969 211.414062 C 360.789062 214.089844 363.648438 217.890625 365.621094 222.828125 C 367.601562 227.769531 368.59375 233.566406 368.59375 240.222656 C 368.59375 246.273438 367.339844 251.714844 364.828125 256.550781 C 362.328125 261.375 359.046875 265.136719 354.980469 267.824219 C 350.910156 270.515625 346.621094 271.863281 342.109375 271.863281 Z M 360.050781 239.636719 C 360.050781 235.765625 359.40625 232.328125 358.125 229.324219 C 356.839844 226.324219 355.066406 223.988281 352.796875 222.3125 C 350.539062 220.640625 348.019531 219.804688 345.234375 219.804688 C 341.796875 219.804688 338.46875 220.535156 335.25 221.984375 C 332.027344 223.441406 329.394531 225.609375 327.34375 228.484375 C 325.300781 231.347656 324.285156 234.804688 324.285156 238.847656 C 324.285156 242.242188 325.109375 245.558594 326.757812 248.796875 C 328.417969 252.042969 330.574219 254.675781 333.222656 256.703125 C 335.878906 258.722656 338.621094 259.730469 341.453125 259.730469 C 344.671875 259.730469 347.703125 258.929688 350.546875 257.324219 C 353.398438 255.707031 355.695312 253.394531 357.4375 250.378906 C 359.179688 247.355469 360.050781 243.773438 360.050781 239.636719 Z M 360.050781 239.636719 "/>
</g>
</svg>
